<?xml version="1.0" encoding="UTF-8"?>
<svg width="173px" height="24px" viewBox="0 0 173 24" version="1.1" xmlns="http://www.w3.org/2000/svg" xmlns:xlink="http://www.w3.org/1999/xlink">
    <title>logo-consequence-white</title>
    <g id="Marketing---Web" stroke="none" stroke-width="1" fill="none" fill-rule="evenodd">
        <g id="1.0-Landing" transform="translate(-200.000000, -4613.000000)">
            <g id="Consequence" transform="translate(200.000000, 4613.000000)">
                <path d="M16.2375,2.48605785 C14.7204632,0.96041421 12.6134953,0 9.57967071,0 C4.46701762,0 0.3375,4.23759292 0.3375,9.46414952 C0.3375,14.6624071 4.32656969,18.9 9.57967071,18.9 C12.4730474,18.9 14.636294,18.0805801 16.2375,16.329045 L13.905666,13.7300415 C12.9225305,14.7753528 11.3776034,15.3686308 9.83242717,15.3686308 C6.51770673,15.3686308 4.07381323,12.7130292 4.07381323,9.46414952 C4.07381323,6.18697081 6.51770673,3.53136917 9.6078101,3.53136917 C11.4057428,3.53136917 12.8383614,4.23759292 13.905666,5.16995853 L16.2375,2.48605785 Z" id="Fill-1" fill="#FFFFFF"/>
                <path d="M24.5109731,18.6 C28.4384939,18.6 31.575,15.4296325 31.575,11.5638056 C31.575,7.67036752 28.4384939,4.5 24.5109731,4.5 C20.5832019,4.5 17.475,7.67036752 17.475,11.5638056 C17.475,15.4296325 20.5832019,18.6 24.5109731,18.6 Z M24.5390269,15.4017747 C22.4482733,15.4017747 20.9223513,13.6775483 20.9223513,11.5361944 C20.9223513,9.39459384 22.4482733,7.69822534 24.5390269,7.69822534 C26.6019772,7.69822534 28.0993445,9.39459384 28.0993445,11.5361944 C28.0993445,13.6775483 26.6019772,15.4017747 24.5390269,15.4017747 Z" id="Fill-2" fill="#FFFFFF"/>
                <path d="M37.3933087,10.6862411 C37.3933087,8.86667086 38.4300027,7.71904882 40.1390329,7.71904882 C41.7921799,7.71904882 42.8569397,8.86667086 42.8569397,10.6862411 L42.8569397,18.3 L46.275,18.3 L46.275,10.18228 C46.275,6.68333543 44.2858091,4.5 41.1757269,4.5 C39.5225799,4.5 38.2337909,5.11586982 37.3933087,6.20741347 L37.3933087,4.89180437 L33.975,4.89180437 L33.975,18.3 L37.3933087,18.3 L37.3933087,10.6862411 Z" id="Fill-3" fill="#FFFFFF"/>
                <path d="M52.9155824,8.47701157 C52.9155824,7.75394097 53.6092863,7.22538203 54.7748072,7.22538203 C56.0512715,7.22538203 57.1611977,7.6425097 58.0492371,8.69938105 L59.9640566,6.69706962 C58.9650738,5.30639752 57.0780517,4.5 54.6916611,4.5 C51.3060418,4.5 49.5855578,6.44684233 49.5855578,8.47701157 C49.5855578,13.2604207 56.717424,12.0923646 56.717424,14.4839459 C56.717424,15.3182012 56.0512715,15.874618 54.7470098,15.874618 C53.1652666,15.874618 51.8888023,15.3182012 50.8620221,14.1780029 L48.975,16.3472147 C50.1127236,17.6821712 52.027543,18.6 54.5526744,18.6 C58.1604265,18.6 60.075,16.6810155 60.075,14.4284768 C60.075,9.45030947 52.9155824,10.8128772 52.9155824,8.47701157 Z" id="Fill-4" fill="#FFFFFF"/>
                <path d="M69.3583499,18.6 C71.622225,18.6 73.5228692,17.6821712 74.5290634,16.5141151 L72.7681615,14.2058608 C71.9857037,15.0125048 70.8397671,15.5965329 69.4980922,15.5965329 C67.4297076,15.5965329 66.0042864,14.2615764 65.6688057,12.3983075 L75.5912537,12.3983075 C75.6472498,12.1756915 75.675,11.7028482 75.675,11.2857205 C75.675,7.44799804 72.7681615,4.5 68.9391229,4.5 C65.0818385,4.5 62.175,7.67036752 62.175,11.5638056 C62.175,15.4296325 65.1935828,18.6 69.3583499,18.6 Z M68.9948712,7.39228241 C70.5880327,7.39228241 71.7899653,8.36558031 72.1811943,10.256707 L65.7248018,10.256707 C66.1160307,8.5603385 67.2899653,7.39228241 68.9948712,7.39228241 Z" id="Fill-5" fill="#FFFFFF"/>
                <path d="M84.6140269,15.5943647 C82.5232733,15.5943647 80.9973513,13.8396784 80.9973513,11.6604953 C80.9973513,9.48106143 82.5232733,7.75472499 84.6140269,7.75472499 C86.6767267,7.75472499 88.1743445,9.48106143 88.1743445,11.6604953 C88.1743445,13.8396784 86.6767267,15.5943647 84.6140269,15.5943647 Z M88.1743445,4.89614667 L88.1743445,6.25468639 C87.2137551,5.15104535 85.8291036,4.5 84.0489448,4.5 C80.2909987,4.5 77.55,7.58487617 77.55,11.6885944 C77.55,15.9057124 80.4605734,18.8490897 84.0489448,18.8490897 C85.8007994,18.8490897 87.1854509,18.1415954 88.1743445,16.9812544 L88.1743445,24 L91.65,24 L91.65,4.89614667 L88.1743445,4.89614667 Z" id="Fill-6" fill="#FFFFFF"/>
                <path d="M98.0061053,4.8 L94.575,4.8 L94.575,12.3324595 C94.575,16.0985647 97.0778968,18.6 100.875,18.6 C104.671854,18.6 107.175,16.0985647 107.175,12.3324595 L107.175,4.8 L103.743645,4.8 L103.743645,12.0795754 C103.743645,14.0468396 102.590553,15.3678167 100.875,15.3678167 C99.159198,15.3678167 98.0061053,14.0468396 98.0061053,12.0795754 L98.0061053,4.8 Z" id="Fill-7" fill="#FFFFFF"/>
                <path d="M116.758218,18.6 C119.022299,18.6 120.922909,17.6821712 121.929084,16.5141151 L120.168215,14.2058608 C119.385524,15.0125048 118.239608,15.5965329 116.897958,15.5965329 C114.829611,15.5965329 113.404216,14.2615764 113.068742,12.3983075 L122.991007,12.3983075 C123.047002,12.1756915 123.075,11.7028482 123.075,11.2857205 C123.075,7.44799804 120.168215,4.5 116.338999,4.5 C112.482033,4.5 109.575,7.67036752 109.575,11.5638056 C109.575,15.4296325 112.593775,18.6 116.758218,18.6 Z M116.394994,7.39228241 C117.988126,7.39228241 119.190037,8.36558031 119.581258,10.256707 L113.124737,10.256707 C113.515958,8.5603385 114.689871,7.39228241 116.394994,7.39228241 Z" id="Fill-8" fill="#FFFFFF"/>
                <path d="M128.89306,10.6862411 C128.89306,8.86667086 129.929754,7.71904882 131.639033,7.71904882 C133.291932,7.71904882 134.356691,8.86667086 134.356691,10.6862411 L134.356691,18.3 L137.775,18.3 L137.775,10.18228 C137.775,6.68333543 135.785561,4.5 132.675479,4.5 C131.02258,4.5 129.733791,5.11586982 128.89306,6.20741347 L128.89306,4.89180437 L125.475,4.89180437 L125.475,18.3 L128.89306,18.3 L128.89306,10.6862411 Z" id="Fill-9" fill="#FFFFFF"/>
                <path d="M150.513626,8.92199706 L152.475,6.50231143 C151.298226,5.27878624 149.476932,4.5 147.179515,4.5 C143.257016,4.5 140.175,7.67036752 140.175,11.5638056 C140.175,15.4296325 143.257016,18.6 147.235647,18.6 C149.364918,18.6 151.298226,17.7657447 152.362985,16.5976886 L150.625641,14.094676 C149.785159,14.9289314 148.692582,15.4017747 147.319595,15.4017747 C145.134193,15.4017747 143.593309,13.6775483 143.593309,11.5361944 C143.593309,9.39459384 145.106127,7.69822534 147.347661,7.69822534 C148.664516,7.69822534 149.673144,8.11535301 150.513626,8.92199706 Z" id="Fill-10" fill="#FFFFFF"/>
                <path d="M160.55835,18.6 C162.822225,18.6 164.722869,17.6821712 165.729063,16.5141151 L163.968162,14.2058608 C163.185704,15.0125048 162.039767,15.5965329 160.698092,15.5965329 C158.629708,15.5965329 157.204286,14.2615764 156.868806,12.3983075 L166.791254,12.3983075 C166.84725,12.1756915 166.875,11.7028482 166.875,11.2857205 C166.875,7.44799804 163.968162,4.5 160.139123,4.5 C156.281838,4.5 153.375,7.67036752 153.375,11.5638056 C153.375,15.4296325 156.393583,18.6 160.55835,18.6 Z M160.194871,7.39228241 C161.788033,7.39228241 162.989965,8.36558031 163.381194,10.256707 L156.924802,10.256707 C157.316031,8.5603385 158.489965,7.39228241 160.194871,7.39228241 Z" id="Fill-11" fill="#FFFFFF"/>
                <path d="M170.235825,18.9 C171.480933,18.9 172.5,17.9094781 172.5,16.66405 C172.5,15.4188727 171.480933,14.4 170.235825,14.4 C168.990467,14.4 168,15.4188727 168,16.66405 C168,17.9094781 168.990467,18.9 170.235825,18.9 Z" id="Fill-12" fill="#F3113B"/>
            </g>
        </g>
    </g>
</svg>